<svg width="242" height="38" viewBox="0 0 242 38" fill="none" xmlns="http://www.w3.org/2000/svg">
<g id="Group 2466">
<g id="Social_icons_black">
<g id="Facebook">
<path id="Combined-Shape" opacity="0.1" fill-rule="evenodd" clip-rule="evenodd" d="M19 1.5C9.33502 1.5 1.5 9.33502 1.5 19C1.5 28.665 9.33502 36.5 19 36.5C28.665 36.5 36.5 28.665 36.5 19C36.5 9.33502 28.665 1.5 19 1.5ZM0.5 19C0.5 8.78273 8.78273 0.5 19 0.5C29.2173 0.5 37.5 8.78273 37.5 19C37.5 29.2173 29.2173 37.5 19 37.5C8.78273 37.5 0.5 29.2173 0.5 19Z" fill="white"/>
<path id="Combined-Shape-path" d="M20.8762 29.5836V19.7907H23.5795L23.9377 16.416H20.8762L20.8808 14.7269C20.8808 13.8467 20.9644 13.3751 22.2286 13.3751H23.9186V10H21.2149C17.9674 10 16.8244 11.6371 16.8244 14.3902V16.4163H14.8V19.791H16.8244V29.5836H20.8762Z" fill="#F7F8FA"/>
</g>
</g>
<g id="LinkedIN">
<path id="Combined-Shape_2" opacity="0.1" fill-rule="evenodd" clip-rule="evenodd" d="M223.5 2C213.835 2 206 9.83502 206 19.5C206 29.165 213.835 37 223.5 37C233.165 37 241 29.165 241 19.5C241 9.83502 233.165 2 223.5 2ZM205 19.5C205 9.28273 213.283 1 223.5 1C233.717 1 242 9.28273 242 19.5C242 29.7173 233.717 38 223.5 38C213.283 38 205 29.7173 205 19.5Z" fill="white"/>
<path id="Combined-Shape-path_2" d="M218.22 16.4082H214.141V28.6645H218.22V16.4082Z" fill="white"/>
<path id="Combined-Shape-path_3" d="M218.489 12.617C218.463 11.4153 217.603 10.5 216.208 10.5C214.812 10.5 213.9 11.4153 213.9 12.617C213.9 13.7939 214.785 14.7355 216.155 14.7355H216.181C217.603 14.7355 218.489 13.7939 218.489 12.617Z" fill="white"/>
<path id="Combined-Shape-path_4" d="M232.931 21.6368C232.931 17.8722 230.919 16.1201 228.235 16.1201C226.069 16.1201 225.099 17.3097 224.558 18.1442V16.4082H220.478C220.532 17.5583 220.478 28.6645 220.478 28.6645H224.558V21.8196C224.558 21.4533 224.584 21.0879 224.692 20.8256C224.987 20.0939 225.658 19.3362 226.785 19.3362C228.262 19.3362 228.852 20.4601 228.852 22.1071V28.6642H232.931L232.931 21.6368Z" fill="white"/>
</g>
<g id="Twitter">
<path id="Combined-Shape-path_5" opacity="0.1" d="M52 19C52 9.05887 60.0589 1 70 1C79.9411 1 88 9.05887 88 19C88 28.9411 79.9411 37 70 37C60.0589 37 52 28.9411 52 19Z" stroke="white"/>
<path id="Combined-Shape-path_6" d="M69.4609 15.6304L69.4987 16.2533L68.8691 16.177C66.5776 15.8847 64.5757 14.8932 62.876 13.228L62.045 12.4018L61.831 13.012C61.3777 14.372 61.6673 15.8084 62.6116 16.7744C63.1152 17.3083 63.0019 17.3846 62.1332 17.0668C61.831 16.9651 61.5666 16.8888 61.5414 16.927C61.4533 17.0159 61.7554 18.1726 61.9947 18.6302C62.322 19.2658 62.9893 19.8886 63.7196 20.2572L64.3365 20.5496L63.6063 20.5623C62.9012 20.5623 62.876 20.575 62.9515 20.842C63.2034 21.6682 64.198 22.5452 65.306 22.9266L66.0866 23.1935L65.4067 23.6002C64.3995 24.185 63.216 24.5154 62.0324 24.5409C61.4659 24.5536 61 24.6044 61 24.6426C61 24.7697 62.5361 25.4815 63.43 25.7611C66.1118 26.5873 69.2972 26.2314 71.6894 24.8205C73.3892 23.8163 75.0889 21.8207 75.8821 19.8886C76.3102 18.859 76.7383 16.9778 76.7383 16.0753C76.7383 15.4906 76.7761 15.4143 77.4811 14.7152C77.8966 14.3085 78.2869 13.8636 78.3625 13.7365C78.4884 13.495 78.4758 13.495 77.8337 13.7111C76.7635 14.0924 76.6124 14.0416 77.1412 13.4696C77.5315 13.0628 77.9973 12.3256 77.9973 12.1095C77.9973 12.0713 77.8085 12.1349 77.5944 12.2493C77.3678 12.3764 76.8642 12.5671 76.4865 12.6815L75.8066 12.8976L75.1896 12.4781C74.8497 12.2493 74.3712 11.9951 74.1194 11.9188C73.4773 11.7409 72.4952 11.7663 71.9161 11.9697C70.3422 12.5416 69.3476 14.0161 69.4609 15.6304Z" fill="white"/>
</g>
<g id="Group 2465">
<path id="Combined-Shape_3" opacity="0.1" d="M103.5 19C103.5 9.33502 111.335 1.5 121 1.5V0.5C110.783 0.5 102.5 8.78273 102.5 19H103.5ZM121 1.5C130.665 1.5 138.5 9.33502 138.5 19H139.5C139.5 8.78273 131.217 0.5 121 0.5V1.5ZM138.5 19C138.5 28.665 130.665 36.5 121 36.5V37.5C131.217 37.5 139.5 29.2173 139.5 19H138.5ZM121 36.5C111.335 36.5 103.5 28.665 103.5 19H102.5C102.5 29.2173 110.783 37.5 121 37.5V36.5Z" fill="white"/>
<path id="Fill-2" d="M119.199 22.5996V16.5996L123.999 19.5997L119.199 22.5996Z" fill="white" stroke="white"/>
<path id="Combined-Shape-path_7" d="M130.199 14.5553C129.978 13.7071 129.328 13.0391 128.502 12.8124C127.004 12.4004 121 12.4004 121 12.4004C121 12.4004 114.996 12.4004 113.499 12.8124C112.673 13.0391 112.022 13.7071 111.802 14.5553C111.4 16.0927 111.4 19.3004 111.4 19.3004C111.4 19.3004 111.4 22.508 111.802 24.0455C112.022 24.8937 112.673 25.5617 113.499 25.7885C114.996 26.2004 121 26.2004 121 26.2004C121 26.2004 127.004 26.2004 128.502 25.7885C129.328 25.5617 129.978 24.8937 130.199 24.0455C130.6 22.508 130.6 19.3004 130.6 19.3004C130.6 19.3004 130.6 16.0927 130.199 14.5553Z" stroke="white"/>
</g>
<g id="Group 2464">
<path id="Combined-Shape_4" opacity="0.1" d="M168.042 9.45839L168.02 8.95891L168.02 8.95891L168.042 9.45839ZM175.956 9.45839L175.979 8.95891L175.979 8.95891L175.956 9.45839ZM178.288 9.9044L178.107 10.3706L178.107 10.3706L178.288 9.9044ZM179.988 11.0114L179.634 11.365L179.635 11.3651L179.988 11.0114ZM181.096 12.712L181.562 12.5317L181.562 12.5305L181.096 12.712ZM181.542 15.042L182.041 15.0196L182.041 15.0186L181.542 15.042ZM181.542 22.9581L182.041 22.9816L182.041 22.9806L181.542 22.9581ZM181.096 25.2882L181.562 25.4697L181.562 25.4684L181.096 25.2882ZM179.988 26.9886L179.635 26.6349L179.634 26.6352L179.988 26.9886ZM178.289 28.0966L178.107 27.6305L178.107 27.6305L178.289 28.0966ZM175.957 28.5426L175.98 29.0421L175.98 29.0421L175.957 28.5426ZM168.042 28.5426L168.019 29.0421L168.019 29.0421L168.042 28.5426ZM165.711 28.0966L165.892 27.6305L165.892 27.6305L165.711 28.0966ZM164.011 26.9886L164.365 26.6352L164.365 26.635L164.011 26.9886ZM162.904 25.288L162.438 25.4691L162.438 25.4691L162.904 25.288ZM162.458 22.9579L161.958 22.9806L161.958 22.9809L162.458 22.9579ZM162.458 15.0418L161.958 15.0194L161.958 15.0195L162.458 15.0418ZM162.904 12.7118L163.37 12.8934L163.37 12.8934L162.904 12.7118ZM164.012 11.0114L164.365 11.3651L164.365 11.3649L164.012 11.0114ZM165.712 9.9044L165.893 10.3705L165.894 10.3704L165.712 9.9044ZM154.5 19C154.5 9.33502 162.335 1.5 172 1.5V0.5C161.783 0.5 153.5 8.78273 153.5 19H154.5ZM172 36.5C162.335 36.5 154.5 28.665 154.5 19H153.5C153.5 29.2173 161.783 37.5 172 37.5V36.5ZM189.5 19C189.5 28.665 181.665 36.5 172 36.5V37.5C182.217 37.5 190.5 29.2173 190.5 19H189.5ZM172 1.5C181.665 1.5 189.5 9.33502 189.5 19H190.5C190.5 8.78273 182.217 0.5 172 0.5V1.5ZM172.001 8.90039C169.391 8.90039 169.055 8.91179 168.02 8.95891L168.065 9.95787C169.078 9.91179 169.396 9.90039 172.001 9.90039V8.90039ZM171.998 9.90039H172.001V8.90039H171.998V9.90039ZM175.979 8.95891C174.943 8.91179 174.608 8.90039 171.998 8.90039V9.90039C174.603 9.90039 174.92 9.91179 175.933 9.95787L175.979 8.95891ZM178.469 9.43824C177.8 9.17889 177.048 9.00788 175.979 8.95891L175.933 9.95787C176.908 10.0025 177.552 10.1551 178.107 10.3706L178.469 9.43824ZM180.341 10.6579C179.755 10.0715 179.161 9.70667 178.469 9.4382L178.107 10.3706C178.679 10.5921 179.153 10.8833 179.634 11.365L180.341 10.6579ZM181.562 12.5305C181.293 11.8396 180.928 11.244 180.341 10.6577L179.635 11.3651C180.116 11.846 180.407 12.3217 180.63 12.8935L181.562 12.5305ZM182.041 15.0186C181.991 13.9496 181.82 13.1982 181.562 12.5317L180.63 12.8923C180.844 13.4466 180.997 14.0904 181.043 15.0655L182.041 15.0186ZM182.1 19.0005C182.1 16.3904 182.088 16.0546 182.041 15.0196L181.042 15.0645C181.088 16.0775 181.1 16.3961 181.1 19.0005H182.1ZM182.041 22.9806C182.088 21.9456 182.1 21.6106 182.1 19.0005H181.1C181.1 21.6049 181.088 21.9227 181.042 22.9357L182.041 22.9806ZM181.562 25.4684C181.82 24.8017 181.991 24.0502 182.041 22.9816L181.043 22.9347C180.997 23.9093 180.844 24.5534 180.63 25.1079L181.562 25.4684ZM180.341 27.3423C180.928 26.756 181.293 26.1604 181.562 25.4697L180.63 25.1066C180.407 25.6783 180.116 26.1539 179.635 26.6349L180.341 27.3423ZM178.47 28.5627C179.161 28.294 179.756 27.9283 180.342 27.3419L179.634 26.6352C179.153 27.1169 178.678 27.4088 178.107 27.6305L178.47 28.5627ZM175.98 29.0421C177.049 28.9931 177.802 28.8221 178.47 28.5626L178.107 27.6305C177.553 27.8459 176.909 27.9985 175.934 28.0431L175.98 29.0421ZM172 29.1006C174.61 29.1006 174.945 29.0892 175.98 29.0421L175.935 28.0431C174.922 28.0892 174.604 28.1006 172 28.1006V29.1006ZM168.019 29.0421C169.054 29.0892 169.39 29.1006 172 29.1006V28.1006C169.395 28.1006 169.077 28.0892 168.064 28.0431L168.019 29.0421ZM165.53 28.5626C166.198 28.8221 166.95 28.9931 168.019 29.0421L168.064 28.0431C167.09 27.9985 166.446 27.8459 165.892 27.6305L165.53 28.5626ZM163.657 27.3419C164.243 27.9284 164.839 28.294 165.53 28.5626L165.892 27.6305C165.321 27.4087 164.846 27.1167 164.365 26.6352L163.657 27.3419ZM162.438 25.4691C162.707 26.1603 163.071 26.756 163.658 27.3422L164.365 26.635C163.884 26.154 163.592 25.6784 163.37 25.1068L162.438 25.4691ZM161.958 22.9809C162.008 24.05 162.179 24.8019 162.438 25.4691L163.37 25.1069C163.155 24.5532 163.002 23.9099 162.957 22.935L161.958 22.9809ZM161.9 19.0005C161.9 21.6104 161.912 21.9454 161.958 22.9806L162.957 22.9353C162.912 21.9225 162.9 21.605 162.9 19.0005H161.9ZM161.958 15.0195C161.912 16.0545 161.9 16.3904 161.9 19.0005H162.9C162.9 16.3961 162.912 16.0773 162.957 15.0642L161.958 15.0195ZM162.438 12.5302C162.178 13.1979 162.006 13.9503 161.958 15.0194L162.957 15.0643C163.001 14.0902 163.154 13.447 163.37 12.8934L162.438 12.5302ZM163.658 10.6577C163.072 11.244 162.707 11.8396 162.438 12.5303L163.37 12.8934C163.592 12.3217 163.884 11.846 164.365 11.3651L163.658 10.6577ZM165.531 9.43831C164.84 9.70677 164.244 10.0715 163.658 10.6579L164.365 11.3649C164.846 10.8837 165.322 10.5924 165.893 10.3705L165.531 9.43831ZM168.02 8.95891C166.95 9.00787 166.198 9.17888 165.531 9.4384L165.894 10.3704C166.447 10.1551 167.09 10.0025 168.065 9.95787L168.02 8.95891Z" fill="white"/>
<path id="Combined-Shape-path_8" d="M171.015 10.0027C171.308 10.0023 171.634 10.0027 172 10.0027C174.931 10.0027 175.279 10.0133 176.436 10.0659C177.507 10.1148 178.088 10.2937 178.475 10.444C178.987 10.643 179.352 10.8809 179.736 11.2652C180.121 11.6495 180.358 12.0155 180.558 12.5279C180.708 12.9145 180.887 13.4955 180.936 14.5661C180.989 15.7235 181 16.0712 181 19.0015C181 21.9318 180.989 22.2795 180.936 23.4369C180.887 24.5075 180.708 25.0885 180.558 25.4751C180.359 25.9875 180.121 26.3523 179.736 26.7364C179.352 27.1207 178.987 27.3586 178.475 27.5576C178.088 27.7086 177.507 27.887 176.436 27.936C175.279 27.9886 174.931 28 172 28C169.069 28 168.721 27.9886 167.564 27.936C166.493 27.8865 165.913 27.7077 165.525 27.5574C165.013 27.3584 164.647 27.1205 164.263 26.7362C163.879 26.3519 163.641 25.9868 163.441 25.4742C163.291 25.0876 163.112 24.5066 163.063 23.436C163.011 22.2785 163 21.9308 163 18.9987C163 16.0666 163.011 15.7208 163.063 14.5633C163.112 13.4928 163.291 12.9117 163.441 12.5247C163.64 12.0123 163.879 11.6463 164.263 11.262C164.647 10.8777 165.013 10.6398 165.525 10.4403C165.912 10.2894 166.493 10.1109 167.564 10.0618C168.577 10.016 168.969 10.0023 171.015 10V10.0027Z" stroke="white"/>
<path id="Combined-Shape-path_9" d="M177.125 12.724C176.489 12.724 175.973 13.2394 175.973 13.8756C175.973 14.5117 176.489 15.0277 177.125 15.0277C177.761 15.0277 178.277 14.5117 178.277 13.8756C178.277 13.2396 177.761 12.7236 177.125 12.7236V12.724Z" stroke="white"/>
<path id="Shape" d="M172.001 15.7998C173.768 15.7998 175.201 17.2324 175.201 18.9998C175.201 20.7671 173.768 22.1999 172.001 22.1999C170.233 22.1999 168.801 20.7671 168.801 18.9998C168.801 17.2324 170.233 15.7998 172.001 15.7998V15.7998Z" stroke="white"/>
</g>
</g>
</svg>
