<svg width="57" height="57" viewBox="0 0 57 57" fill="none" xmlns="http://www.w3.org/2000/svg">
<g id="Group 2464">
<g id="Combined-Shape" opacity="0.1">
<path d="M1 28.6733C1 13.3897 13.3897 1 28.6733 1C43.9568 1 56.3465 13.3897 56.3465 28.6733C56.3465 43.9568 43.9568 56.3465 28.6733 56.3465C13.3897 56.3465 1 43.9568 1 28.6733Z" fill="#226CF5"/>
<path d="M1.5 28.6733C1.5 13.6659 13.6659 1.5 28.6733 1.5V0.5C13.1136 0.5 0.5 13.1136 0.5 28.6733H1.5ZM28.6733 1.5C43.6807 1.5 55.8465 13.6659 55.8465 28.6733H56.8465C56.8465 13.1136 44.2329 0.5 28.6733 0.5V1.5ZM55.8465 28.6733C55.8465 43.6807 43.6807 55.8465 28.6733 55.8465V56.8465C44.2329 56.8465 56.8465 44.2329 56.8465 28.6733H55.8465ZM28.6733 55.8465C13.6659 55.8465 1.5 43.6807 1.5 28.6733H0.5C0.5 44.2329 13.1136 56.8465 28.6733 56.8465V55.8465Z" fill="#226CF5"/>
</g>
<path id="Combined-Shape-path" d="M26.882 14.3409C27.3314 14.3402 27.8328 14.3409 28.3961 14.3409C32.9027 14.3409 33.4368 14.3571 35.2164 14.438C36.8621 14.5132 37.7552 14.7882 38.3502 15.0193C39.1379 15.3252 39.6994 15.691 40.2898 16.2818C40.8806 16.8726 41.2463 17.4353 41.5529 18.2231C41.7839 18.8174 42.0592 19.7107 42.1341 21.3565C42.215 23.136 42.2326 23.6706 42.2326 28.1756C42.2326 32.6806 42.215 33.2152 42.1341 34.9946C42.0589 36.6405 41.7839 37.5338 41.5529 38.1281C41.247 38.9159 40.8806 39.4768 40.2898 40.0673C39.6991 40.6581 39.1382 41.0238 38.3502 41.3298C37.7559 41.5619 36.8621 41.8362 35.2164 41.9115C33.4372 41.9924 32.9027 42.0099 28.3961 42.0099C23.8892 42.0099 23.3551 41.9924 21.5758 41.9115C19.9302 41.8355 19.037 41.5605 18.4417 41.3294C17.6541 41.0235 17.0914 40.6577 16.5007 40.0669C15.91 39.4761 15.5443 38.9148 15.2376 38.1267C15.0066 37.5324 14.7313 36.6391 14.6564 34.9932C14.5755 33.2137 14.5593 32.6792 14.5593 28.1714C14.5593 23.6635 14.5755 23.1318 14.6564 21.3523C14.7316 19.7065 15.0066 18.8132 15.2376 18.2182C15.5436 17.4304 15.91 16.8677 16.5007 16.2769C17.0914 15.6861 17.6541 15.3203 18.4417 15.0137C19.0367 14.7815 19.9302 14.5072 21.5758 14.4316C23.1329 14.3613 23.7363 14.3402 26.882 14.3367V14.3409Z" stroke="#226CF5" stroke-width="2"/>
<path id="Combined-Shape-path_2" d="M36.2748 18.5248C35.297 18.5248 34.5037 19.3172 34.5037 20.2953C34.5037 21.2731 35.297 22.0664 36.2748 22.0664C37.2526 22.0664 38.0459 21.2731 38.0459 20.2953C38.0459 19.3175 37.2526 18.5242 36.2748 18.5242V18.5248Z" stroke="#226CF5" stroke-width="2"/>
<path id="Shape" d="M28.3973 23.2534C31.1142 23.2534 33.317 25.4559 33.317 28.1732C33.317 30.8901 31.1142 33.0929 28.3973 33.0929C28.3973 33.0929 23.4775 30.8901 23.4775 28.1732C23.4775 25.4559 25.68 23.2534 28.3973 23.2534Z" stroke="#226CF5" stroke-width="2"/>
</g>
</svg>
