<svg width="57" height="56" viewBox="0 0 57 56" fill="none" xmlns="http://www.w3.org/2000/svg">
<g id="LinkedIN">
<path id="Combined-Shape" opacity="0.1" d="M0.89917 27.9421C0.89917 12.6585 13.2889 0.268799 28.5724 0.268799C43.856 0.268799 56.2457 12.6585 56.2457 27.9421C56.2457 43.2256 43.856 55.6153 28.5724 55.6153C13.2889 55.6153 0.89917 43.2256 0.89917 27.9421Z" fill="#226CF5"/>
<path id="Combined-Shape-path" d="M20.4557 23.1887H14.1843V42.0316H20.4557V23.1887Z" fill="#226CF5"/>
<path id="Combined-Shape-path_2" d="M20.8687 17.3599C20.828 15.5124 19.5069 14.1052 17.3615 14.1052C15.2161 14.1052 13.8135 15.5124 13.8135 17.3599C13.8135 19.1692 15.1746 20.6169 17.28 20.6169H17.3201C19.5069 20.6169 20.8687 19.1692 20.8687 17.3599Z" fill="#226CF5"/>
<path id="Combined-Shape-path_3" d="M43.0724 31.2273C43.0724 25.4395 39.9785 22.7458 35.8517 22.7458C32.522 22.7458 31.0312 24.5747 30.1989 25.8577V23.1888H23.9268C24.0094 24.9569 23.9268 42.0317 23.9268 42.0317H30.1989V31.5083C30.1989 30.9451 30.2396 30.3833 30.4054 29.9801C30.8587 28.8551 31.8906 27.6903 33.6232 27.6903C35.8935 27.6903 36.801 29.4181 36.801 31.9502V42.0312H43.0721L43.0724 31.2273Z" fill="#226CF5"/>
</g>
</svg>
