<svg width="66" height="66" viewBox="0 0 66 66" fill="none" xmlns="http://www.w3.org/2000/svg">
<g id="Group 3787">
<g id="Ellipse 817" filter="url(#filter0_dd_1_985)">
<circle cx="33" cy="23" r="18" fill="white"/>
</g>
<g id="Vector">
<path fill-rule="evenodd" clip-rule="evenodd" d="M32.8616 24.1429C34.1242 24.1429 35.1488 23.1188 35.1488 21.8571C35.1488 20.5954 34.1242 19.5714 32.8616 19.5714C31.5991 19.5714 30.5744 20.5954 30.5744 21.8571C30.5744 23.1188 31.5991 24.1429 32.8616 24.1429Z" stroke="#226CF5" stroke-width="1.5" stroke-linecap="square"/>
<path fill-rule="evenodd" clip-rule="evenodd" d="M39.7232 21.8571C39.7232 27.5714 34.0052 31 32.8616 31C31.718 31 26 27.5714 26 21.8571C26 18.0708 29.0729 15 32.8616 15C36.6504 15 39.7232 18.0708 39.7232 21.8571Z" stroke="#226CF5" stroke-width="1.5" stroke-linecap="square"/>
</g>
</g>
<defs>
<filter id="filter0_dd_1_985" x="0" y="0" width="66" height="66" filterUnits="userSpaceOnUse" color-interpolation-filters="sRGB">
<feFlood flood-opacity="0" result="BackgroundImageFix"/>
<feColorMatrix in="SourceAlpha" type="matrix" values="0 0 0 0 0 0 0 0 0 0 0 0 0 0 0 0 0 0 127 0" result="hardAlpha"/>
<feOffset dy="10"/>
<feGaussianBlur stdDeviation="7.5"/>
<feColorMatrix type="matrix" values="0 0 0 0 0 0 0 0 0 0 0 0 0 0 0 0 0 0 0.1 0"/>
<feBlend mode="normal" in2="BackgroundImageFix" result="effect1_dropShadow_1_985"/>
<feColorMatrix in="SourceAlpha" type="matrix" values="0 0 0 0 0 0 0 0 0 0 0 0 0 0 0 0 0 0 127 0" result="hardAlpha"/>
<feOffset/>
<feGaussianBlur stdDeviation="2.5"/>
<feColorMatrix type="matrix" values="0 0 0 0 0 0 0 0 0 0 0 0 0 0 0 0 0 0 0.05 0"/>
<feBlend mode="normal" in2="effect1_dropShadow_1_985" result="effect2_dropShadow_1_985"/>
<feBlend mode="normal" in="SourceGraphic" in2="effect2_dropShadow_1_985" result="shape"/>
</filter>
</defs>
</svg>
