<svg width="30" height="33" viewBox="0 0 30 33" fill="none" xmlns="http://www.w3.org/2000/svg">
<path id="Vector 263" d="M1.38767 12.4633L1.03865 13.2173L12.6321 16.8027C11.5662 19.4269 10.4531 22.4746 10.2928 23.1427L5.67997 24.4218L4.94423 26.0112L9.31178 26.5485C9.06654 27.7216 8.78359 30.1342 9.61371 30.3997C10.4438 30.6652 11.9657 28.9647 12.6229 28.0813L15.9245 31.2428L16.7169 29.5311L14.9528 25.3C16.2432 23.2845 17.5405 20.4606 18.0279 19.3006L28.263 25.8202L28.6098 25.0711C28.9191 24.4031 28.8363 23.6191 28.3943 23.0303L20.9143 13.0654L23.2348 8.05282C25.2195 3.50831 23.9611 1.6589 23.0838 1.30227C20.6085 0.987761 18.6377 4.04419 17.9616 5.61171L15.6978 10.502L3.07525 11.3076C2.34337 11.3543 1.69575 11.7978 1.38767 12.4633Z" stroke="#226CF5" stroke-width="2" stroke-linejoin="round"/>
</svg>
