<svg width="32" height="32" viewBox="0 0 32 32" fill="none" xmlns="http://www.w3.org/2000/svg">
<path id="Vector" d="M13.8571 1L16 2.07143V4.21429L13.8571 5.28571L17.0714 7.42857H18.1429V5.28571H21.3571V7.42857L22.4286 8.5V10.6429L21.3571 11.7143H19.2143L14.9286 9.57143L12.7857 10.6429H9.57143L8.5 14.9286L11.7143 18.1429L13.8571 19.2143V22.4286L14.9286 23.5V25.6429L16 27.7857H18.1429L20.2857 24.5714L21.3571 22.4286V20.2857L24.5714 16L23.5 13.8571H26.7143V11.7143H31M16 31C7.71573 31 1 24.2843 1 16C1 7.71573 7.71573 1 16 1C24.2843 1 31 7.71573 31 16C31 24.2843 24.2843 31 16 31Z" stroke="#FDAF4D" stroke-width="2" stroke-linejoin="round"/>
</svg>
