<svg width="57" height="57" viewBox="0 0 57 57" fill="none" xmlns="http://www.w3.org/2000/svg">
<g id="Twitter">
<path id="Combined-Shape-path" opacity="0.1" d="M0.907715 28.1733C0.907715 12.8897 13.2975 0.5 28.581 0.5C43.8645 0.5 56.2543 12.8897 56.2543 28.1733C56.2543 43.4568 43.8645 55.8465 28.581 55.8465C13.2975 55.8465 0.907715 43.4568 0.907715 28.1733Z" fill="#226CF5" stroke="#226CF5"/>
<path id="Combined-Shape-path_2" d="M27.7522 22.993L27.8103 23.9505L26.8424 23.8333C23.3195 23.3838 20.2417 21.8595 17.6286 19.2995L16.351 18.0293L16.0219 18.9673C15.3251 21.0583 15.7703 23.2666 17.2221 24.7518C17.9963 25.5725 17.8221 25.6898 16.4865 25.2012C16.0219 25.0449 15.6154 24.9276 15.5767 24.9863C15.4412 25.1231 15.9058 26.9014 16.2736 27.6049C16.7769 28.582 17.8028 29.5395 18.9255 30.1063L19.874 30.5557L18.7513 30.5753C17.6673 30.5753 17.6286 30.5948 17.7447 31.0052C18.1318 32.2754 19.661 33.6238 21.3644 34.2101L22.5646 34.6205L21.5193 35.2458C19.9707 36.1447 18.1512 36.6528 16.3316 36.6919C15.4606 36.7115 14.7444 36.7896 14.7444 36.8483C14.7444 37.0437 17.1059 38.138 18.4803 38.5679C22.6033 39.8382 27.5006 39.291 31.1784 37.1218C33.7916 35.578 36.4047 32.5099 37.6242 29.5395C38.2823 27.9566 38.9405 25.0644 38.9405 23.6769C38.9405 22.778 38.9986 22.6608 40.0825 21.586C40.7213 20.9606 41.3214 20.2766 41.4375 20.0812C41.6311 19.7099 41.6117 19.7099 40.6245 20.0421C38.9792 20.6284 38.7469 20.5502 39.5599 19.6708C40.16 19.0455 40.8762 17.9121 40.8762 17.5798C40.8762 17.5212 40.5858 17.6189 40.2567 17.7948C39.9083 17.9902 39.1341 18.2834 38.5533 18.4592L37.5081 18.7915L36.5596 18.1466C36.0369 17.7948 35.3014 17.404 34.9142 17.2867C33.927 17.0131 32.4172 17.0522 31.5268 17.3649C29.1072 18.2443 27.578 20.5111 27.7522 22.993Z" fill="#226CF5"/>
</g>
</svg>
