<svg width="58" height="57" viewBox="0 0 58 57" fill="none" xmlns="http://www.w3.org/2000/svg">
<g id="Group 2465">
<g id="Combined-Shape" opacity="0.1">
<path d="M1.31519 28.1733C1.31519 12.8897 13.7049 0.5 28.9885 0.5C44.272 0.5 56.6617 12.8897 56.6617 28.1733C56.6617 43.4568 44.272 55.8465 28.9885 55.8465C13.7049 55.8465 1.31519 43.4568 1.31519 28.1733Z" fill="#226CF5"/>
<path d="M1.81519 28.1733C1.81519 13.1659 13.9811 1 28.9885 1V0C13.4288 0 0.815186 12.6136 0.815186 28.1733H1.81519ZM28.9885 1C43.9958 1 56.1617 13.1659 56.1617 28.1733H57.1617C57.1617 12.6136 44.5481 0 28.9885 0V1ZM56.1617 28.1733C56.1617 43.1807 43.9958 55.3465 28.9885 55.3465V56.3465C44.5481 56.3465 57.1617 43.7329 57.1617 28.1733H56.1617ZM28.9885 55.3465C13.9811 55.3465 1.81519 43.1807 1.81519 28.1733H0.815186C0.815186 43.7329 13.4288 56.3465 28.9885 56.3465V55.3465Z" fill="#226CF5"/>
</g>
<path id="Fill-2" d="M26.22 33.7076V24.4832L33.5995 29.0955L26.22 33.7076Z" fill="#226CF5" stroke="#226CF5"/>
<path id="Combined-Shape-path" d="M43.1313 21.3401C42.7918 20.036 41.7916 19.009 40.5214 18.6605C38.2197 18.0271 28.9891 18.0271 28.9891 18.0271C28.9891 18.0271 19.7584 18.0271 17.4565 18.6605C16.1864 19.009 15.1861 20.036 14.8467 21.3401C14.23 23.7036 14.23 28.6352 14.23 28.6352C14.23 28.6352 14.23 33.5666 14.8467 35.9303C15.1861 37.2344 16.1864 38.2613 17.4565 38.61C19.7584 39.2433 28.9891 39.2433 28.9891 39.2433C28.9891 39.2433 38.2197 39.2433 40.5214 38.61C41.7916 38.2613 42.7918 37.2344 43.1313 35.9303C43.7481 33.5666 43.7481 28.6352 43.7481 28.6352C43.7481 28.6352 43.7481 23.7036 43.1313 21.3401Z" stroke="#226CF5" stroke-width="2"/>
</g>
</svg>
